General

Format                         : MPEG-4
Format profile                 : Base Media
Codec ID                       : isom
File size                      : 115 MiB
Duration                       : 3mn 35s
Overall bit rate mode          : Variable
Overall bit rate               : 4 486 Kbps
Encoded date                   : UTC 2012-07-23 14:33:19
Tagged date                    : UTC 2012-07-23 14:33:19

Video
ID                             : 1
Format                         : AVC
Format/Info                    : Advanced Video Codec
Format profile                 : High@L3.0
Format settings, CABAC         : Yes
Format settings, ReFrames      : 2 frames
Codec ID                       : avc1
Codec ID/Info                  : Advanced Video Coding
Duration                       : 3mn 35s
Bit rate                       : 4 215 Kbps
Maximum bit rate               : 7 253 Kbps
Width                          : 640 pixels
Height                         : 480 pixels
Display aspect ratio           : 4:3
Frame rate mode                : Constant
Frame rate                     : 29.970 fps
Color space                    : YUV
Chroma subsampling             : 4:2:0
Bit depth                      : 8 bits
Scan type                      : Progressive
Bits/(Pixel*Frame)             : 0.458
Stream size                    : 110 MiB (96%)


Audio
ID                             : 2
Format                         : AAC
Format/Info                    : Advanced Audio Codec
Format profile                 : LC
Codec ID                       : 40
Duration                       : 3mn 35s
Bit rate mode                  : Variable
Bit rate                       : 192 Kbps
Maximum bit rate               : 208 Kbps
Channel(s)                     : 2 channels
Channel positions              : Front: L R
Sampling rate                  : 44.1 KHz
Compression mode               : Lossy
Delay relative to video        : -667ms
Stream size                    : 4.94 MiB (4%)